<svg id="Livello_1" data-name="Livello 1" xmlns="http://www.w3.org/2000/svg" viewBox="0 0 140.96 44.71"><defs><style>.cls-1{fill:#fff;}.cls-2{fill:#f4991a;}.cls-3{fill:#221f1f;}</style></defs><path class="cls-1" d="M139.59,3.53A7.21,7.21,0,0,0,133.26.21a7.06,7.06,0,0,0-4.67,1.53,2.42,2.42,0,0,0-1.9-1.07h-4a2.41,2.41,0,0,0-2.42,2.17V13.35a15.75,15.75,0,0,0-2.8-8.91A10.21,10.21,0,0,0,108.91.21c-6.7,0-11.2,5.51-11.2,13.71a18.77,18.77,0,0,0,.85,5.75,3,3,0,0,0-1.26-1.33,15.25,15.25,0,0,0-5.79-1.79l5.58-8a5.36,5.36,0,0,0,1.35-2.87V3A2.38,2.38,0,0,0,96,.61H82A2.36,2.36,0,0,0,79.63,3V6.13a2.39,2.39,0,0,0,.73,1.74A2.44,2.44,0,0,0,82,8.52h4.25l-6.66,9.55,0,0a4.91,4.91,0,0,0-.77,2.47l-.16-.21a3.81,3.81,0,0,1-1-2.66V10.39c0-2.74,0-5.57-2.38-7.83a8.82,8.82,0,0,0-3.69-2A13.67,13.67,0,0,0,67.74,0,13.83,13.83,0,0,0,61,1.59a8.86,8.86,0,0,0-4.39,6.24h0a2.36,2.36,0,0,0,1.86,2.74l.18,0,2.69.29a8.83,8.83,0,0,0-5.47,8.42,8.28,8.28,0,0,0,2.34,6.14,7.92,7.92,0,0,0,5.64,2.11,9.55,9.55,0,0,0,6.78-2.29,11.27,11.27,0,0,0,1.67,1.66,1.67,1.67,0,0,0,.28.18,2.59,2.59,0,0,0,1.19.3A2.47,2.47,0,0,0,75.1,27a1.5,1.5,0,0,0,.33-.23c.78-.69,2.35-2.06,3.23-2.79l.17-.16v.45a2.42,2.42,0,0,0,2.32,2.39h.25a10,10,0,0,0-1.47.87,2.33,2.33,0,0,0-1.06,2.59,2.07,2.07,0,0,0,2,1.41,2,2,0,0,0,.34,0h0c.72-.09,1.69-.2,2.72-.29a70.82,70.82,0,0,1-25.7,5,71.31,71.31,0,0,1-35.37-9.38,2.63,2.63,0,0,0-1.32-.37h0a2.2,2.2,0,0,0-2.08,1.4,2.36,2.36,0,0,0,.7,2.61,54.85,54.85,0,0,0,16.9,10.44,56,56,0,0,0,20.33,3.77c11,0,22.72-3.58,30.55-9.36l.12-.09c-.45,1.32-1,2.61-1.33,3.52a2.24,2.24,0,0,0,.15,2.1,2,2,0,0,0,1.67.86,2.64,2.64,0,0,0,1.69-.65A16.24,16.24,0,0,0,95,33.26c.33-1.16,1.3-5,0-6.61a4.09,4.09,0,0,0-2.56-1.26A17.23,17.23,0,0,0,89,25.05a18.75,18.75,0,0,0-5.58.83,14.2,14.2,0,0,1,5.43-1.06,14.4,14.4,0,0,1,6.67,1.6,2.19,2.19,0,0,0,1,.26,2.39,2.39,0,0,0,2.34-2.39V21a.76.76,0,0,0,0-.15,2.49,2.49,0,0,0-.08-.5c1.71,4.6,5.36,7.42,10.14,7.42a10.45,10.45,0,0,0,8.37-4.09,15.14,15.14,0,0,0,3-8.75v10a2.43,2.43,0,0,0,2.26,2.39h4.36a2.44,2.44,0,0,0,2.43-2.38V13.09a8.14,8.14,0,0,1,.54-3.49,1.23,1.23,0,0,1,1-.8c.42,0,.53.11.58.16.52.53.5,2.42.49,3.55V25a1.09,1.09,0,0,0,0,.18,2.4,2.4,0,0,0,2.22,2.11h4.4a2.41,2.41,0,0,0,2.41-2.1,1.23,1.23,0,0,0,0-.2V11.2C141,8.87,141,5.67,139.59,3.53ZM68.45,16a5.62,5.62,0,0,1-.58,3,1.92,1.92,0,0,1-1.56,1.13c-.25,0-1,0-1-1.49C65.32,17.76,65.32,16.33,68.45,16ZM65.29,9a1.71,1.71,0,0,1,1.86-1.28,1.36,1.36,0,0,1,1.06.4h0a2.64,2.64,0,0,1,.25,1.3c-1.14.12-2.33.24-3.51.45A2.83,2.83,0,0,0,65.29,9ZM88.38,31.16a4.3,4.3,0,0,1,.68.13A4.7,4.7,0,0,1,89,32,2.55,2.55,0,0,0,88.38,31.16ZM110.2,8.88a18.88,18.88,0,0,1,.56,5.32,16.15,16.15,0,0,1-.42,4.3C109.89,20,109.25,20,108.91,20s-.89,0-1.34-1.9a21.94,21.94,0,0,1-.37-4.78v-.1a14.48,14.48,0,0,1,.42-4c.43-1.35,1-1.35,1.32-1.35C109.6,7.88,109.93,8,110.2,8.88Z"/><path class="cls-1" d="M22.77,24A2.27,2.27,0,0,0,23.48,23v2a.49.49,0,0,0,0,.12,2.39,2.39,0,0,0,2.24,2.2h4.38a2.42,2.42,0,0,0,2.42-2.4V13c0-1.32,0-3.32.61-3.94.06-.06.22-.22.73-.22s.55.12.59.16c.49.51.47,2.36.45,3.47,0,.28,0,.55,0,.81V24.87a2.43,2.43,0,0,0,2.26,2.39h4.37A2.41,2.41,0,0,0,44,24.87V13a11.69,11.69,0,0,1,.29-3.3,1.23,1.23,0,0,1,1.06-.78c.8,0,.84.17.94.62v0a22.06,22.06,0,0,1,.09,3c0,.27,0,.51,0,.7V24.87a2.42,2.42,0,0,0,2.26,2.39H53a2.42,2.42,0,0,0,2.42-2.4V11.06c0-.32,0-.65,0-1,0-2.24.08-4.79-1.39-6.8a8,8,0,0,0-12.11-.5A6.77,6.77,0,0,0,36.34.21a7.26,7.26,0,0,0-4.55,1.44A2.44,2.44,0,0,0,30,.67H25.9a2.41,2.41,0,0,0-2.42,2.39V21.59a2.72,2.72,0,0,0-.43-.87l-.26-.36a3.81,3.81,0,0,1-1-2.66V10.39c0-2.74,0-5.57-2.38-7.83a8.8,8.8,0,0,0-3.7-2A13.57,13.57,0,0,0,11.85,0,13.89,13.89,0,0,0,5.12,1.59,8.87,8.87,0,0,0,.74,7.83h0A2.36,2.36,0,0,0,2.6,10.58l.18,0,2.69.29A8.82,8.82,0,0,0,0,19.32a8.32,8.32,0,0,0,2.33,6.14A8,8,0,0,0,8,27.57a9.55,9.55,0,0,0,6.78-2.29,11.27,11.27,0,0,0,1.67,1.66,1.67,1.67,0,0,0,.28.18,2.56,2.56,0,0,0,1.19.3A2.5,2.5,0,0,0,19.21,27a1.5,1.5,0,0,0,.33-.23C20.32,26.12,21.88,24.75,22.77,24ZM12.56,16a5.62,5.62,0,0,1-.59,3,1.89,1.89,0,0,1-1.55,1.13c-.25,0-1,0-1-1.49C9.43,17.76,9.43,16.33,12.56,16ZM9.4,9a1.71,1.71,0,0,1,1.86-1.28,1.33,1.33,0,0,1,1.05.4h0a2.65,2.65,0,0,1,.24,1.3c-1.13.12-2.32.24-3.5.45A2.83,2.83,0,0,0,9.4,9Z"/><path id="path8" class="cls-2" d="M87.06,34.07c-8,5.9-19.61,9-29.6,9A53.62,53.62,0,0,1,21.3,29.32c-.74-.68-.07-1.6.83-1.08a72.74,72.74,0,0,0,36.17,9.6,71.92,71.92,0,0,0,27.6-5.65c1.35-.57,2.49.89,1.16,1.88"/><path id="path10" class="cls-2" d="M90.39,30.26c-1-1.31-6.77-.62-9.34-.31-.79.09-.91-.59-.2-1.08,4.57-3.22,12.08-2.29,13-1.21s-.23,8.61-4.53,12.2c-.66.55-1.29.26-1-.48,1-2.41,3.13-7.81,2.11-9.12"/><path id="path12" class="cls-3" d="M81.23,6.13V3A.77.77,0,0,1,82,2.21H96a.78.78,0,0,1,.81.79V5.68a4.45,4.45,0,0,1-1,2L88.52,18a15.45,15.45,0,0,1,8,1.71A1.43,1.43,0,0,1,97.26,21v3.34c0,.46-.5,1-1,.71a16.16,16.16,0,0,0-14.81,0c-.48.26-1-.27-1-.72V21.14A3.8,3.8,0,0,1,80.94,19L89.36,6.92H82a.78.78,0,0,1-.81-.79"/><path id="path14" class="cls-3" d="M30.11,25.66H25.84a.8.8,0,0,1-.76-.72V3.06a.8.8,0,0,1,.82-.79h4a.81.81,0,0,1,.77.73V5.86h.08a5.63,5.63,0,0,1,5.61-4.05c2.67,0,4.34,1.29,5.54,4.05A6.3,6.3,0,0,1,52.7,4.2c1.35,1.84,1.08,4.52,1.08,6.86V24.87a.8.8,0,0,1-.82.79H48.69a.81.81,0,0,1-.77-.79V13.28a26.7,26.7,0,0,0-.12-4.11,2.22,2.22,0,0,0-2.5-1.88,2.83,2.83,0,0,0-2.55,1.79,13.23,13.23,0,0,0-.4,4.2V24.87a.8.8,0,0,1-.82.79H37.27a.8.8,0,0,1-.76-.79V13.28c0-2.44.4-6-2.63-6s-2.94,3.51-2.94,6V24.87a.8.8,0,0,1-.82.79"/><path id="path16" class="cls-3" d="M108.91,1.81c6.32,0,9.75,5.43,9.75,12.34,0,6.68-3.79,12-9.75,12-6.22,0-9.6-5.43-9.6-12.2s3.42-12.11,9.6-12.11m0,4.47c-3.14,0-3.34,4.28-3.34,7s0,8.38,3.31,8.38,3.46-4.6,3.46-7.41a20.21,20.21,0,0,0-.64-5.81,2.66,2.66,0,0,0-2.79-2.11"/><path id="path18" class="cls-3" d="M126.86,25.66h-4.25a.81.81,0,0,1-.76-.79V3a.81.81,0,0,1,.82-.72h4a.81.81,0,0,1,.76.61V6.23h.08c1.2-3,2.87-4.42,5.81-4.42a5.59,5.59,0,0,1,5,2.58c1.11,1.75,1.11,4.69,1.11,6.81V25a.81.81,0,0,1-.82.69h-4.27a.8.8,0,0,1-.76-.69V13.09c0-2.39.28-5.89-2.67-5.89A2.78,2.78,0,0,0,128.37,9a9.63,9.63,0,0,0-.68,4.14V24.87a.81.81,0,0,1-.83.79"/><g id="use28"><path id="path30" class="cls-3" d="M70.06,15.21v-.92c-3.09,0-6.34.66-6.34,4.29,0,1.84,1,3.09,2.59,3.09a3.46,3.46,0,0,0,3-1.94,8.33,8.33,0,0,0,.8-4.52M74.35,25.6a.88.88,0,0,1-1,.11,10.4,10.4,0,0,1-2.45-2.85c-2.34,2.39-4,3.1-7,3.1-3.58,0-6.38-2.21-6.38-6.64a7.25,7.25,0,0,1,4.55-7c2.31-1,5.54-1.2,8-1.48v-.55a5.54,5.54,0,0,0-.52-3.09,2.87,2.87,0,0,0-2.39-1.11,3.25,3.25,0,0,0-3.43,2.56.9.9,0,0,1-.74.78L58.84,9a.75.75,0,0,1-.63-.89c.95-5,5.48-6.53,9.53-6.53,2.08,0,4.79.55,6.42,2.12C76.24,5.66,76,8.24,76,11.06V17.7a5.82,5.82,0,0,0,1.61,3.95.81.81,0,0,1,0,1.14c-.87.72-2.41,2.07-3.26,2.83l0,0"/></g><path id="path30-2" data-name="path30" class="cls-3" d="M14.16,15.21v-.92c-3.08,0-6.33.66-6.33,4.29,0,1.84.95,3.09,2.59,3.09a3.47,3.47,0,0,0,2.95-1.94,8.32,8.32,0,0,0,.79-4.52m4.3,10.39a.88.88,0,0,1-1,.11A10.4,10.4,0,0,1,15,22.86C12.67,25.25,11,26,8,26,4.4,26,1.6,23.75,1.6,19.32a7.25,7.25,0,0,1,4.55-7c2.31-1,5.54-1.2,8-1.48v-.55a5.53,5.53,0,0,0-.51-3.09,2.87,2.87,0,0,0-2.39-1.11A3.25,3.25,0,0,0,7.83,8.68a.9.9,0,0,1-.74.78L3,9a.76.76,0,0,1-.64-.89c1-5,5.49-6.53,9.54-6.53,2.07,0,4.78.55,6.42,2.12,2.08,1.94,1.88,4.52,1.88,7.34V17.7a5.86,5.86,0,0,0,1.6,3.95.8.8,0,0,1,0,1.14c-.87.72-2.41,2.07-3.27,2.83v0"/></svg>